<svg width="25" height="24" viewBox="0 0 25 24" fill="none" xmlns="http://www.w3.org/2000/svg">
<g clip-path="url(#clip0_375_909)">
<path d="M17.9863 -7.05128e-06C16.625 0.0918678 15.1681 0.901868 14.2663 1.99499C13.4769 2.95687 12.815 4.36874 13.0663 5.83499C12.8413 5.76562 12.6369 5.75812 12.3913 5.66999C11.7219 5.43187 10.9569 5.17499 10.0063 5.17499C8.11813 5.17499 6.185 6.29812 4.96625 8.17499C3.1925 10.9012 3.54875 15.6994 6.24125 19.8C6.71563 20.52 7.26875 21.3056 7.95125 21.93C8.63375 22.5544 9.45875 23.0306 10.4263 23.04C11.2531 23.0494 11.8288 22.7737 12.3463 22.545C12.8638 22.3162 13.3456 22.1137 14.2513 22.11C14.2569 22.11 14.2606 22.11 14.2663 22.11C15.1681 22.1025 15.635 22.3012 16.1413 22.53C16.6475 22.7587 17.2175 23.0475 18.0463 23.04C19.0325 23.0325 19.8706 22.4925 20.5663 21.825C21.2619 21.1575 21.8338 20.3381 22.3063 19.62C22.9831 18.5887 23.255 18.0262 23.7763 16.875C23.8306 16.755 23.8325 16.6162 23.78 16.4944C23.7294 16.3725 23.63 16.2769 23.5063 16.23C21.8 15.585 20.8269 14.0756 20.6863 12.48C20.5456 10.8844 21.2206 9.24187 22.9213 8.30999C23.0469 8.24249 23.135 8.12437 23.165 7.98562C23.1931 7.84687 23.1594 7.70062 23.0713 7.58999C21.8506 6.07312 20.1331 5.17499 18.4513 5.17499C17.3788 5.17499 16.5913 5.42812 15.9463 5.66999C15.8394 5.71124 15.7606 5.70749 15.6613 5.74499C16.3156 5.39999 16.8931 4.92187 17.3263 4.36499C18.1138 3.35437 18.7213 1.91624 18.4963 0.404993C18.4588 0.157493 18.2356 -0.0187571 17.9863 -7.05128e-06ZM17.4763 1.13999C17.4444 2.10937 17.1125 3.05812 16.5613 3.76499C15.9838 4.50749 15.0125 5.02124 14.0713 5.17499C14.0881 4.24312 14.4556 3.27749 15.0163 2.59499C15.605 1.88249 16.58 1.36874 17.4763 1.13999ZM10.0063 6.13499C10.4263 6.13499 11.4013 6.33562 12.0613 6.56999C12.7213 6.80437 13.4169 7.07999 14.2363 7.07999C15.0369 7.07999 15.6706 6.80249 16.2913 6.56999C16.9119 6.33749 17.5306 6.13499 18.4513 6.13499C19.6531 6.13499 20.9525 6.75937 21.9763 7.84499C20.3375 9.00187 19.5706 10.8056 19.7263 12.555C19.8819 14.3231 20.9469 16.0012 22.6963 16.875C22.6937 16.8805 22.6912 16.8859 22.6888 16.8913C22.3142 17.7072 22.0644 18.2512 21.5113 19.095C21.0519 19.7944 20.5063 20.5594 19.9063 21.135C19.3063 21.7106 18.6706 22.0744 18.0313 22.08C17.4144 22.0856 17.0638 21.9019 16.5313 21.66C15.9988 21.4181 15.3106 21.1406 14.2513 21.15C13.1938 21.1556 12.4963 21.4219 11.9563 21.66C11.4163 21.8981 11.0619 22.0856 10.4413 22.08C9.785 22.0744 9.17563 21.7556 8.59625 21.225C8.01688 20.6944 7.49375 19.9706 7.03625 19.275C4.51625 15.435 4.31375 10.9237 5.76125 8.69999C6.8225 7.06687 9.58625 6.13499 10.0063 6.13499Z" fill="black"/>
<path d="M10.0063 6.13499C10.4263 6.13499 11.4013 6.33562 12.0613 6.56999C12.7213 6.80437 13.4169 7.07999 14.2363 7.07999C15.0369 7.07999 15.6706 6.80249 16.2913 6.56999C16.9119 6.33749 17.5306 6.13499 18.4513 6.13499C19.6531 6.13499 20.9525 6.75937 21.9763 7.84499C20.3375 9.00187 19.5706 10.8056 19.7263 12.555C19.8819 14.3231 20.9469 16.0012 22.6963 16.875L22.6888 16.8913C22.3142 17.7072 22.0644 18.2512 21.5113 19.095C21.0519 19.7944 20.5063 20.5594 19.9063 21.135C19.3063 21.7106 18.6706 22.0744 18.0313 22.08C17.4144 22.0856 17.0638 21.9019 16.5313 21.66C15.9988 21.4181 15.3106 21.1406 14.2513 21.15C13.1938 21.1556 12.4963 21.4219 11.9563 21.66C11.4163 21.8981 11.0619 22.0856 10.4413 22.08C9.785 22.0744 9.17563 21.7556 8.59625 21.225C8.01688 20.6944 7.49375 19.9706 7.03625 19.275C4.51625 15.435 4.31375 10.9237 5.76125 8.69999C6.8225 7.06687 9.58625 6.13499 10.0063 6.13499Z" fill="black"/>
<path d="M17.4763 1.13999C17.4444 2.10937 17.1125 3.05812 16.5613 3.76499C15.9838 4.50749 15.0125 5.02124 14.0713 5.17499C14.0881 4.24312 14.4556 3.27749 15.0163 2.59499C15.605 1.88249 16.58 1.36874 17.4763 1.13999Z" fill="black"/>
</g>
<defs>
<clipPath id="clip0_375_909">
<rect width="24" height="24" fill="white" transform="translate(0.5)"/>
</clipPath>
</defs>
</svg>
