<svg width="24" height="24" viewBox="0 0 24 24" fill="none" xmlns="http://www.w3.org/2000/svg">
<path d="M16.017 2H7.947C6.37015 2.00185 4.85844 2.62914 3.74353 3.74424C2.62862 4.85933 2.00159 6.37115 2 7.948L2 16.018C2.00185 17.5948 2.62914 19.1066 3.74424 20.2215C4.85933 21.3364 6.37115 21.9634 7.948 21.965H16.018C17.5948 21.9631 19.1066 21.3359 20.2215 20.2208C21.3364 19.1057 21.9634 17.5938 21.965 16.017V7.947C21.9631 6.37015 21.3359 4.85844 20.2208 3.74353C19.1057 2.62862 17.5938 2.00159 16.017 2V2ZM19.957 16.017C19.957 16.5344 19.8551 17.0468 19.6571 17.5248C19.4591 18.0028 19.1689 18.4371 18.803 18.803C18.4371 19.1689 18.0028 19.4591 17.5248 19.6571C17.0468 19.8551 16.5344 19.957 16.017 19.957H7.947C6.90222 19.9567 5.90032 19.5415 5.16165 18.8026C4.42297 18.0638 4.008 17.0618 4.008 16.017V7.947C4.00827 6.90222 4.42349 5.90032 5.16235 5.16165C5.90122 4.42297 6.90322 4.008 7.948 4.008H16.018C17.0628 4.00827 18.0647 4.42349 18.8034 5.16235C19.542 5.90122 19.957 6.90322 19.957 7.948V16.018V16.017Z" fill="white"/>
<path d="M11.9819 6.81909C10.6134 6.82121 9.30148 7.36588 8.33385 8.3337C7.36621 9.30152 6.8218 10.6135 6.81995 11.9821C6.82153 13.351 7.36597 14.6634 8.33385 15.6315C9.30172 16.5996 10.614 17.1442 11.9829 17.1461C13.352 17.1445 14.6646 16.5999 15.6327 15.6318C16.6008 14.6637 17.1454 13.3512 17.1469 11.9821C17.1448 10.6132 16.5999 9.30098 15.6316 8.33329C14.6634 7.3656 13.3509 6.82141 11.9819 6.82009V6.81909ZM11.9819 15.1381C11.1452 15.1381 10.3427 14.8057 9.75102 14.214C9.15935 13.6223 8.82695 12.8198 8.82695 11.9831C8.82695 11.1463 9.15935 10.3438 9.75102 9.75217C10.3427 9.16049 11.1452 8.82809 11.9819 8.82809C12.8187 8.82809 13.6212 9.16049 14.2129 9.75217C14.8045 10.3438 15.1369 11.1463 15.1369 11.9831C15.1369 12.8198 14.8045 13.6223 14.2129 14.214C13.6212 14.8057 12.8187 15.1381 11.9819 15.1381Z" fill="white"/>
<path d="M17.1559 8.09509C17.8391 8.09509 18.3929 7.54127 18.3929 6.85809C18.3929 6.17492 17.8391 5.62109 17.1559 5.62109C16.4728 5.62109 15.9189 6.17492 15.9189 6.85809C15.9189 7.54127 16.4728 8.09509 17.1559 8.09509Z" fill="white"/>
</svg>
